{"glyphs":{"0":{"ha":884,"x_min":0,"x_max":758,"o":"m 505 126 l 505 1010 l 252 1010 l 252 126 l 505 126 m 126 0 l 126 126 l 0 126 l 0 1010 l 126 1010 l 126 1136 l 631 1136 l 631 1010 l 758 1010 l 758 126 l 631 126 l 631 0 l 126 0 z "},"1":{"ha":631,"x_min":0,"x_max":505,"o":"m 252 0 l 252 884 l 0 884 l 0 1010 l 252 1010 l 252 1136 l 505 1136 l 505 0 l 252 0 z "},"2":{"ha":884,"x_min":0,"x_max":758,"o":"m 0 0 l 0 252 l 126 252 l 126 379 l 252 379 l 252 505 l 379 505 l 379 631 l 505 631 l 505 1010 l 252 1010 l 252 884 l 0 884 l 0 1010 l 126 1010 l 126 1136 l 631 1136 l 631 1010 l 758 1010 l 758 631 l 631 631 l 631 505 l 505 505 l 505 379 l 379 379 l 379 252 l 252 252 l 252 126 l 758 126 l 758 0 l 0 0 z "},"3":{"ha":884,"x_min":0,"x_max":758,"o":"m 126 0 l 126 126 l 0 126 l 0 252 l 252 252 l 252 126 l 505 126 l 505 505 l 252 505 l 252 631 l 505 631 l 505 1010 l 252 1010 l 252 884 l 0 884 l 0 1010 l 126 1010 l 126 1136 l 631 1136 l 631 1010 l 758 1010 l 758 631 l 631 631 l 631 505 l 758 505 l 758 126 l 631 126 l 631 0 l 126 0 z "},"4":{"ha":884,"x_min":0,"x_max":758,"o":"m 379 379 l 379 505 l 252 505 l 252 379 l 379 379 m 379 0 l 379 252 l 0 252 l 0 505 l 126 505 l 126 758 l 252 758 l 252 1010 l 379 1010 l 379 1136 l 631 1136 l 631 379 l 758 379 l 758 252 l 631 252 l 631 0 l 379 0 z "},"5":{"ha":884,"x_min":0,"x_max":758,"o":"m 126 0 l 126 126 l 0 126 l 0 252 l 252 252 l 252 126 l 505 126 l 505 631 l 252 631 l 252 505 l 0 505 l 0 1136 l 758 1136 l 758 1010 l 252 1010 l 252 758 l 631 758 l 631 631 l 758 631 l 758 126 l 631 126 l 631 0 l 126 0 z "},"6":{"ha":884,"x_min":0,"x_max":758,"o":"m 505 126 l 505 505 l 252 505 l 252 126 l 505 126 m 126 0 l 126 126 l 0 126 l 0 1010 l 126 1010 l 126 1136 l 631 1136 l 631 1010 l 758 1010 l 758 884 l 505 884 l 505 1010 l 252 1010 l 252 631 l 631 631 l 631 505 l 758 505 l 758 126 l 631 126 l 631 0 l 126 0 z "},"7":{"ha":884,"x_min":0,"x_max":758,"o":"m 126 0 l 126 379 l 252 379 l 252 631 l 379 631 l 379 884 l 505 884 l 505 1010 l 0 1010 l 0 1136 l 758 1136 l 758 884 l 631 884 l 631 631 l 505 631 l 505 379 l 379 379 l 379 0 l 126 0 z "},"8":{"ha":884,"x_min":0,"x_max":758,"o":"m 505 126 l 505 505 l 252 505 l 252 126 l 505 126 m 505 631 l 505 1010 l 252 1010 l 252 631 l 505 631 m 126 0 l 126 126 l 0 126 l 0 505 l 126 505 l 126 631 l 0 631 l 0 1010 l 126 1010 l 126 1136 l 631 1136 l 631 1010 l 758 1010 l 758 631 l 631 631 l 631 505 l 758 505 l 758 126 l 631 126 l 631 0 l 126 0 z "},"9":{"ha":884,"x_min":0,"x_max":758,"o":"m 505 631 l 505 1010 l 252 1010 l 252 631 l 505 631 m 126 0 l 126 126 l 0 126 l 0 252 l 252 252 l 252 126 l 505 126 l 505 505 l 126 505 l 126 631 l 0 631 l 0 1010 l 126 1010 l 126 1136 l 631 1136 l 631 1010 l 758 1010 l 758 126 l 631 126 l 631 0 l 126 0 z "}," ":{"ha":379,"x_min":0,"x_max":0,"o":""},"!":{"ha":379,"x_min":0,"x_max":252,"o":"m 0 0 l 0 126 l 252 126 l 252 0 l 0 0 m 0 252 l 0 1136 l 252 1136 l 252 252 l 0 252 z "},"#":{"ha":1010,"x_min":0,"x_max":884,"o":"m 505 379 l 505 758 l 379 758 l 379 379 l 505 379 m 126 0 l 126 252 l 0 252 l 0 379 l 126 379 l 126 758 l 0 758 l 0 884 l 126 884 l 126 1136 l 379 1136 l 379 884 l 505 884 l 505 1136 l 758 1136 l 758 884 l 884 884 l 884 758 l 758 758 l 758 379 l 884 379 l 884 252 l 758 252 l 758 0 l 505 0 l 505 252 l 379 252 l 379 0 l 126 0 z "},"$":{"ha":884,"x_min":0,"x_max":758,"o":"m 252 -126 l 252 0 l 126 0 l 126 126 l 0 126 l 0 252 l 252 252 l 252 505 l 126 505 l 126 631 l 0 631 l 0 884 l 126 884 l 126 1010 l 252 1010 l 252 1136 l 505 1136 l 505 1010 l 631 1010 l 631 884 l 758 884 l 758 758 l 505 758 l 505 505 l 631 505 l 631 379 l 758 379 l 758 126 l 631 126 l 631 0 l 505 0 l 505 -126 l 252 -126 z "},"%":{"ha":1136,"x_min":0,"x_max":1010,"o":"m 758 126 l 758 252 l 631 252 l 631 126 l 758 126 m 505 0 l 505 126 l 379 126 l 379 252 l 505 252 l 505 379 l 884 379 l 884 252 l 1010 252 l 1010 126 l 884 126 l 884 0 l 505 0 m 379 884 l 379 1010 l 252 1010 l 252 884 l 379 884 m 0 126 l 0 252 l 126 252 l 126 379 l 252 379 l 252 505 l 379 505 l 379 631 l 505 631 l 505 758 l 631 758 l 631 884 l 758 884 l 758 1010 l 1010 1010 l 1010 884 l 884 884 l 884 758 l 758 758 l 758 631 l 631 631 l 631 505 l 505 505 l 505 379 l 379 379 l 379 252 l 252 252 l 252 126 l 0 126 m 126 758 l 126 884 l 0 884 l 0 1010 l 126 1010 l 126 1136 l 505 1136 l 505 1010 l 631 1010 l 631 884 l 505 884 l 505 758 l 126 758 z "},"&":{"ha":884,"x_min":0,"x_max":758,"o":"m 379 126 l 379 379 l 252 379 l 252 126 l 379 126 m 126 0 l 126 126 l 0 126 l 0 505 l 126 505 l 126 758 l 0 758 l 0 1010 l 126 1010 l 126 1136 l 379 1136 l 379 1010 l 505 1010 l 505 758 l 379 758 l 379 505 l 758 505 l 758 379 l 631 379 l 631 126 l 758 126 l 758 0 l 126 0 z "},"(":{"ha":505,"x_min":0,"x_max":379,"o":"m 126 -252 l 126 -126 l 0 -126 l 0 1010 l 126 1010 l 126 1136 l 379 1136 l 379 1010 l 252 1010 l 252 -126 l 379 -126 l 379 -252 l 126 -252 z "},")":{"ha":505,"x_min":0,"x_max":379,"o":"m 0 -252 l 0 -126 l 126 -126 l 126 1010 l 0 1010 l 0 1136 l 252 1136 l 252 1010 l 379 1010 l 379 -126 l 252 -126 l 252 -252 l 0 -252 z "},"-":{"ha":631,"x_min":126,"x_max":505,"o":"m 126 379 l 126 505 l 505 505 l 505 379 l 126 379 z "},":":{"ha":379,"x_min":0,"x_max":252,"o":"m 0 0 l 0 126 l 252 126 l 252 0 l 0 0 m 0 631 l 0 758 l 252 758 l 252 631 l 0 631 z "},";":{"ha":505,"x_min":0,"x_max":379,"o":"m 0 -126 l 0 0 l 126 0 l 126 126 l 379 126 l 379 0 l 252 0 l 252 -126 l 0 -126 m 126 631 l 126 758 l 379 758 l 379 631 l 126 631 z "},"@":{"ha":1515,"x_min":0,"x_max":1389,"o":"m 758 379 l 758 631 l 631 631 l 631 379 l 758 379 m 379 -126 l 379 0 l 126 0 l 126 252 l 0 252 l 0 758 l 126 758 l 126 1010 l 379 1010 l 379 1136 l 1010 1136 l 1010 1010 l 1262 1010 l 1262 758 l 1389 758 l 1389 252 l 505 252 l 505 379 l 379 379 l 379 631 l 505 631 l 505 758 l 1010 758 l 1010 379 l 1136 379 l 1136 758 l 1010 758 l 1010 884 l 884 884 l 884 1010 l 505 1010 l 505 884 l 379 884 l 379 758 l 252 758 l 252 252 l 379 252 l 379 126 l 505 126 l 505 0 l 1136 0 l 1136 -126 l 379 -126 z "},"A":{"ha":1136,"x_min":0,"x_max":1010,"o":"m 631 379 l 631 631 l 379 631 l 379 379 l 631 379 m 0 0 l 0 252 l 126 252 l 126 631 l 252 631 l 252 884 l 379 884 l 379 1136 l 631 1136 l 631 884 l 758 884 l 758 631 l 884 631 l 884 252 l 1010 252 l 1010 0 l 758 0 l 758 252 l 252 252 l 252 0 l 0 0 z "},"B":{"ha":884,"x_min":0,"x_max":758,"o":"m 505 126 l 505 505 l 252 505 l 252 126 l 505 126 m 505 631 l 505 1010 l 252 1010 l 252 631 l 505 631 m 0 0 l 0 1136 l 631 1136 l 631 1010 l 758 1010 l 758 631 l 631 631 l 631 505 l 758 505 l 758 126 l 631 126 l 631 0 l 0 0 z "},"C":{"ha":1010,"x_min":0,"x_max":884,"o":"m 126 0 l 126 126 l 0 126 l 0 1010 l 126 1010 l 126 1136 l 758 1136 l 758 1010 l 884 1010 l 884 884 l 631 884 l 631 1010 l 252 1010 l 252 126 l 631 126 l 631 252 l 884 252 l 884 126 l 758 126 l 758 0 l 126 0 z "},"D":{"ha":1010,"x_min":0,"x_max":884,"o":"m 505 126 l 505 252 l 631 252 l 631 884 l 505 884 l 505 1010 l 252 1010 l 252 126 l 505 126 m 0 0 l 0 1136 l 631 1136 l 631 1010 l 758 1010 l 758 884 l 884 884 l 884 252 l 758 252 l 758 126 l 631 126 l 631 0 l 0 0 z "},"E":{"ha":884,"x_min":0,"x_max":758,"o":"m 0 0 l 0 1136 l 758 1136 l 758 1010 l 252 1010 l 252 631 l 631 631 l 631 505 l 252 505 l 252 126 l 758 126 l 758 0 l 0 0 z "},"F":{"ha":884,"x_min":0,"x_max":758,"o":"m 0 0 l 0 1136 l 758 1136 l 758 1010 l 252 1010 l 252 631 l 631 631 l 631 505 l 252 505 l 252 0 l 0 0 z "},"G":{"ha":1010,"x_min":0,"x_max":884,"o":"m 126 0 l 126 126 l 0 126 l 0 1010 l 126 1010 l 126 1136 l 758 1136 l 758 1010 l 884 1010 l 884 884 l 631 884 l 631 1010 l 252 1010 l 252 126 l 505 126 l 505 252 l 631 252 l 631 505 l 379 505 l 379 631 l 884 631 l 884 0 l 126 0 z "},"H":{"ha":1010,"x_min":0,"x_max":884,"o":"m 0 0 l 0 1136 l 252 1136 l 252 631 l 631 631 l 631 1136 l 884 1136 l 884 0 l 631 0 l 631 505 l 252 505 l 252 0 l 0 0 z "},"I":{"ha":379,"x_min":0,"x_max":252,"o":"m 0 0 l 0 1136 l 252 1136 l 252 0 l 0 0 z "},"J":{"ha":758,"x_min":0,"x_max":631,"o":"m 126 0 l 126 126 l 0 126 l 0 379 l 252 379 l 252 126 l 379 126 l 379 1136 l 631 1136 l 631 126 l 505 126 l 505 0 l 126 0 z "},"K":{"ha":1010,"x_min":0,"x_max":884,"o":"m 0 0 l 0 1136 l 252 1136 l 252 884 l 379 884 l 379 1010 l 505 1010 l 505 1136 l 758 1136 l 758 1010 l 631 1010 l 631 884 l 505 884 l 505 758 l 379 758 l 379 505 l 505 505 l 505 379 l 631 379 l 631 252 l 758 252 l 758 126 l 884 126 l 884 0 l 631 0 l 631 126 l 505 126 l 505 252 l 379 252 l 379 379 l 252 379 l 252 0 l 0 0 z "},"L":{"ha":884,"x_min":0,"x_max":758,"o":"m 0 0 l 0 1136 l 252 1136 l 252 126 l 758 126 l 758 0 l 0 0 z "},"M":{"ha":1136,"x_min":0,"x_max":1010,"o":"m 0 0 l 0 1136 l 252 1136 l 252 884 l 379 884 l 379 631 l 631 631 l 631 884 l 758 884 l 758 1136 l 1010 1136 l 1010 0 l 758 0 l 758 379 l 631 379 l 631 126 l 379 126 l 379 379 l 252 379 l 252 0 l 0 0 z "},"N":{"ha":1010,"x_min":0,"x_max":884,"o":"m 0 0 l 0 1136 l 252 1136 l 252 1010 l 379 1010 l 379 758 l 505 758 l 505 505 l 631 505 l 631 1136 l 884 1136 l 884 0 l 631 0 l 631 126 l 505 126 l 505 379 l 379 379 l 379 505 l 252 505 l 252 0 l 0 0 z "},"O":{"ha":1010,"x_min":0,"x_max":884,"o":"m 631 126 l 631 1010 l 252 1010 l 252 126 l 631 126 m 126 0 l 126 126 l 0 126 l 0 1010 l 126 1010 l 126 1136 l 758 1136 l 758 1010 l 884 1010 l 884 126 l 758 126 l 758 0 l 126 0 z "},"P":{"ha":1010,"x_min":0,"x_max":884,"o":"m 631 631 l 631 1010 l 252 1010 l 252 631 l 631 631 m 0 0 l 0 1136 l 758 1136 l 758 1010 l 884 1010 l 884 631 l 758 631 l 758 505 l 252 505 l 252 0 l 0 0 z "},"Q":{"ha":1010,"x_min":0,"x_max":884,"o":"m 505 126 l 505 252 l 379 252 l 379 379 l 631 379 l 631 1010 l 252 1010 l 252 126 l 505 126 m 631 -126 l 631 0 l 126 0 l 126 126 l 0 126 l 0 1010 l 126 1010 l 126 1136 l 758 1136 l 758 1010 l 884 1010 l 884 126 l 758 126 l 758 0 l 884 0 l 884 -126 l 631 -126 z "},"R":{"ha":1010,"x_min":0,"x_max":884,"o":"m 631 631 l 631 1010 l 252 1010 l 252 631 l 631 631 m 0 0 l 0 1136 l 758 1136 l 758 1010 l 884 1010 l 884 631 l 758 631 l 758 505 l 884 505 l 884 0 l 631 0 l 631 505 l 252 505 l 252 0 l 0 0 z "},"S":{"ha":884,"x_min":0,"x_max":758,"o":"m 126 0 l 126 126 l 0 126 l 0 252 l 252 252 l 252 126 l 505 126 l 505 505 l 126 505 l 126 631 l 0 631 l 0 1010 l 126 1010 l 126 1136 l 631 1136 l 631 1010 l 758 1010 l 758 884 l 505 884 l 505 1010 l 252 1010 l 252 631 l 631 631 l 631 505 l 758 505 l 758 126 l 631 126 l 631 0 l 126 0 z "},"T":{"ha":884,"x_min":0,"x_max":758,"o":"m 252 0 l 252 1010 l 0 1010 l 0 1136 l 758 1136 l 758 1010 l 505 1010 l 505 0 l 252 0 z "},"U":{"ha":1010,"x_min":0,"x_max":884,"o":"m 126 0 l 126 126 l 0 126 l 0 1136 l 252 1136 l 252 126 l 631 126 l 631 1136 l 884 1136 l 884 126 l 758 126 l 758 0 l 126 0 z "},"V":{"ha":1136,"x_min":0,"x_max":1010,"o":"m 379 0 l 379 252 l 252 252 l 252 505 l 126 505 l 126 884 l 0 884 l 0 1136 l 252 1136 l 252 884 l 379 884 l 379 505 l 631 505 l 631 884 l 758 884 l 758 1136 l 1010 1136 l 1010 884 l 884 884 l 884 505 l 758 505 l 758 252 l 631 252 l 631 0 l 379 0 z "},"W":{"ha":1641,"x_min":0,"x_max":1515,"o":"m 379 0 l 379 252 l 252 252 l 252 505 l 126 505 l 126 884 l 0 884 l 0 1136 l 252 1136 l 252 884 l 379 884 l 379 505 l 631 505 l 631 884 l 884 884 l 884 505 l 1136 505 l 1136 884 l 1262 884 l 1262 1136 l 1515 1136 l 1515 884 l 1389 884 l 1389 505 l 1262 505 l 1262 252 l 1136 252 l 1136 0 l 884 0 l 884 252 l 631 252 l 631 0 l 379 0 z "},"X":{"ha":1136,"x_min":0,"x_max":1010,"o":"m 0 0 l 0 252 l 126 252 l 126 379 l 252 379 l 252 505 l 379 505 l 379 631 l 252 631 l 252 758 l 126 758 l 126 884 l 0 884 l 0 1136 l 252 1136 l 252 884 l 379 884 l 379 758 l 631 758 l 631 884 l 758 884 l 758 1136 l 1010 1136 l 1010 884 l 884 884 l 884 758 l 758 758 l 758 631 l 631 631 l 631 505 l 758 505 l 758 379 l 884 379 l 884 252 l 1010 252 l 1010 0 l 758 0 l 758 252 l 631 252 l 631 379 l 379 379 l 379 252 l 252 252 l 252 0 l 0 0 z "},"Y":{"ha":1136,"x_min":0,"x_max":1010,"o":"m 379 0 l 379 631 l 252 631 l 252 758 l 126 758 l 126 884 l 0 884 l 0 1136 l 252 1136 l 252 884 l 379 884 l 379 758 l 631 758 l 631 884 l 758 884 l 758 1136 l 1010 1136 l 1010 884 l 884 884 l 884 758 l 758 758 l 758 631 l 631 631 l 631 0 l 379 0 z "},"Z":{"ha":1136,"x_min":0,"x_max":1010,"o":"m 0 0 l 0 252 l 126 252 l 126 379 l 252 379 l 252 505 l 379 505 l 379 631 l 505 631 l 505 758 l 631 758 l 631 884 l 758 884 l 758 1010 l 0 1010 l 0 1136 l 1010 1136 l 1010 884 l 884 884 l 884 758 l 758 758 l 758 631 l 631 631 l 631 505 l 505 505 l 505 379 l 379 379 l 379 252 l 252 252 l 252 126 l 1010 126 l 1010 0 l 0 0 z "},"[":{"ha":505,"x_min":0,"x_max":379,"o":"m 0 -252 l 0 1136 l 379 1136 l 379 1010 l 252 1010 l 252 -126 l 379 -126 l 379 -252 l 0 -252 z "},"]":{"ha":505,"x_min":0,"x_max":379,"o":"m 0 -252 l 0 -126 l 126 -126 l 126 1010 l 0 1010 l 0 1136 l 379 1136 l 379 -252 l 0 -252 z "},"^":{"ha":884,"x_min":0,"x_max":758,"o":"m 0 884 l 0 1010 l 126 1010 l 126 1136 l 252 1136 l 252 1262 l 505 1262 l 505 1136 l 631 1136 l 631 1010 l 758 1010 l 758 884 l 505 884 l 505 1010 l 252 1010 l 252 884 l 0 884 z "},"`":{"ha":505,"x_min":0,"x_max":379,"o":"m 126 884 l 126 1010 l 0 1010 l 0 1136 l 252 1136 l 252 1010 l 379 1010 l 379 884 l 126 884 z "},"a":{"ha":884,"x_min":0,"x_max":758,"o":"m 505 126 l 505 379 l 252 379 l 252 126 l 505 126 m 126 0 l 126 126 l 0 126 l 0 379 l 126 379 l 126 505 l 505 505 l 505 631 l 126 631 l 126 758 l 631 758 l 631 631 l 758 631 l 758 0 l 126 0 z "},"b":{"ha":884,"x_min":0,"x_max":758,"o":"m 505 126 l 505 631 l 252 631 l 252 126 l 505 126 m 0 0 l 0 1136 l 252 1136 l 252 758 l 631 758 l 631 631 l 758 631 l 758 126 l 631 126 l 631 0 l 0 0 z "},"c":{"ha":884,"x_min":0,"x_max":758,"o":"m 126 0 l 126 126 l 0 126 l 0 631 l 126 631 l 126 758 l 631 758 l 631 631 l 758 631 l 758 505 l 505 505 l 505 631 l 252 631 l 252 126 l 505 126 l 505 252 l 758 252 l 758 126 l 631 126 l 631 0 l 126 0 z "},"d":{"ha":884,"x_min":0,"x_max":758,"o":"m 505 126 l 505 631 l 252 631 l 252 126 l 505 126 m 126 0 l 126 126 l 0 126 l 0 631 l 126 631 l 126 758 l 505 758 l 505 1136 l 758 1136 l 758 0 l 126 0 z "},"e":{"ha":884,"x_min":0,"x_max":758,"o":"m 505 505 l 505 631 l 252 631 l 252 505 l 505 505 m 126 0 l 126 126 l 0 126 l 0 631 l 126 631 l 126 758 l 631 758 l 631 631 l 758 631 l 758 379 l 252 379 l 252 126 l 505 126 l 505 252 l 758 252 l 758 126 l 631 126 l 631 0 l 126 0 z "},"f":{"ha":505,"x_min":0,"x_max":379,"o":"m 0 0 l 0 1010 l 126 1010 l 126 1136 l 379 1136 l 379 1010 l 252 1010 l 252 758 l 379 758 l 379 631 l 252 631 l 252 0 l 0 0 z "},"g":{"ha":884,"x_min":0,"x_max":758,"o":"m 505 126 l 505 631 l 252 631 l 252 126 l 505 126 m 0 -252 l 0 -126 l 505 -126 l 505 0 l 126 0 l 126 126 l 0 126 l 0 631 l 126 631 l 126 758 l 758 758 l 758 -126 l 631 -126 l 631 -252 l 0 -252 z "},"h":{"ha":884,"x_min":0,"x_max":758,"o":"m 0 0 l 0 1136 l 252 1136 l 252 758 l 631 758 l 631 631 l 758 631 l 758 0 l 505 0 l 505 631 l 379 631 l 379 505 l 252 505 l 252 0 l 0 0 z "},"i":{"ha":379,"x_min":0,"x_max":252,"o":"m 0 0 l 0 758 l 252 758 l 252 0 l 0 0 m 0 1010 l 0 1136 l 252 1136 l 252 1010 l 0 1010 z "},"j":{"ha":379,"x_min":0,"x_max":252,"o":"m 0 -252 l 0 758 l 252 758 l 252 -252 l 0 -252 m 0 1010 l 0 1136 l 252 1136 l 252 1010 l 0 1010 z "},"k":{"ha":884,"x_min":0,"x_max":758,"o":"m 0 0 l 0 1136 l 252 1136 l 252 631 l 379 631 l 379 758 l 631 758 l 631 631 l 505 631 l 505 505 l 379 505 l 379 379 l 505 379 l 505 252 l 631 252 l 631 126 l 758 126 l 758 0 l 505 0 l 505 126 l 379 126 l 379 252 l 252 252 l 252 0 l 0 0 z "},"l":{"ha":379,"x_min":0,"x_max":252,"o":"m 0 0 l 0 1136 l 252 1136 l 252 0 l 0 0 z "},"m":{"ha":1136,"x_min":0,"x_max":1010,"o":"m 0 0 l 0 758 l 884 758 l 884 631 l 1010 631 l 1010 0 l 758 0 l 758 631 l 631 631 l 631 0 l 379 0 l 379 631 l 252 631 l 252 0 l 0 0 z "},"n":{"ha":884,"x_min":0,"x_max":758,"o":"m 0 0 l 0 758 l 631 758 l 631 631 l 758 631 l 758 0 l 505 0 l 505 631 l 379 631 l 379 505 l 252 505 l 252 0 l 0 0 z "},"o":{"ha":884,"x_min":0,"x_max":758,"o":"m 505 126 l 505 631 l 252 631 l 252 126 l 505 126 m 126 0 l 126 126 l 0 126 l 0 631 l 126 631 l 126 758 l 631 758 l 631 631 l 758 631 l 758 126 l 631 126 l 631 0 l 126 0 z "},"p":{"ha":884,"x_min":0,"x_max":758,"o":"m 505 126 l 505 631 l 252 631 l 252 126 l 505 126 m 0 -252 l 0 758 l 631 758 l 631 631 l 758 631 l 758 126 l 631 126 l 631 0 l 252 0 l 252 -252 l 0 -252 z "},"q":{"ha":884,"x_min":0,"x_max":758,"o":"m 505 126 l 505 631 l 252 631 l 252 126 l 505 126 m 505 -252 l 505 0 l 126 0 l 126 126 l 0 126 l 0 631 l 126 631 l 126 758 l 758 758 l 758 -252 l 505 -252 z "},"r":{"ha":505,"x_min":0,"x_max":379,"o":"m 0 0 l 0 758 l 379 758 l 379 631 l 252 631 l 252 0 l 0 0 z "},"s":{"ha":758,"x_min":0,"x_max":631,"o":"m 126 0 l 126 126 l 0 126 l 0 252 l 252 252 l 252 126 l 379 126 l 379 252 l 252 252 l 252 379 l 126 379 l 126 505 l 0 505 l 0 631 l 126 631 l 126 758 l 505 758 l 505 631 l 631 631 l 631 505 l 379 505 l 379 631 l 252 631 l 252 505 l 379 505 l 379 379 l 505 379 l 505 252 l 631 252 l 631 126 l 505 126 l 505 0 l 126 0 z "},"t":{"ha":505,"x_min":0,"x_max":379,"o":"m 126 0 l 126 126 l 0 126 l 0 1010 l 252 1010 l 252 758 l 379 758 l 379 631 l 252 631 l 252 126 l 379 126 l 379 0 l 126 0 z "},"u":{"ha":884,"x_min":0,"x_max":758,"o":"m 126 0 l 126 126 l 0 126 l 0 758 l 252 758 l 252 126 l 379 126 l 379 252 l 505 252 l 505 758 l 758 758 l 758 0 l 126 0 z "},"v":{"ha":884,"x_min":0,"x_max":758,"o":"m 252 0 l 252 252 l 126 252 l 126 505 l 0 505 l 0 758 l 252 758 l 252 505 l 505 505 l 505 758 l 758 758 l 758 505 l 631 505 l 631 252 l 505 252 l 505 0 l 252 0 z "},"w":{"ha":1136,"x_min":0,"x_max":1010,"o":"m 126 0 l 126 252 l 0 252 l 0 758 l 252 758 l 252 505 l 379 505 l 379 758 l 631 758 l 631 505 l 758 505 l 758 758 l 1010 758 l 1010 252 l 884 252 l 884 0 l 631 0 l 631 252 l 379 252 l 379 0 l 126 0 z "},"x":{"ha":758,"x_min":0,"x_max":631,"o":"m 0 0 l 0 252 l 126 252 l 126 505 l 0 505 l 0 758 l 252 758 l 252 505 l 379 505 l 379 758 l 631 758 l 631 505 l 505 505 l 505 252 l 631 252 l 631 0 l 379 0 l 379 252 l 252 252 l 252 0 l 0 0 z "},"y":{"ha":758,"x_min":-126,"x_max":631,"o":"m -126 -252 l -126 -126 l 126 -126 l 126 252 l 0 252 l 0 758 l 252 758 l 252 252 l 379 252 l 379 758 l 631 758 l 631 252 l 505 252 l 505 126 l 379 126 l 379 -126 l 252 -126 l 252 -252 l -126 -252 z "},"z":{"ha":758,"x_min":0,"x_max":631,"o":"m 0 0 l 0 252 l 126 252 l 126 379 l 252 379 l 252 505 l 379 505 l 379 631 l 0 631 l 0 758 l 631 758 l 631 505 l 505 505 l 505 379 l 379 379 l 379 252 l 252 252 l 252 126 l 631 126 l 631 0 l 0 0 z "},"{":{"ha":631,"x_min":0,"x_max":505,"o":"m 252 -126 l 252 0 l 126 0 l 126 505 l 0 505 l 0 631 l 126 631 l 126 1136 l 252 1136 l 252 1262 l 505 1262 l 505 1136 l 379 1136 l 379 631 l 252 631 l 252 505 l 379 505 l 379 0 l 505 0 l 505 -126 l 252 -126 z "},"}":{"ha":631,"x_min":0,"x_max":505,"o":"m 0 -126 l 0 0 l 126 0 l 126 505 l 252 505 l 252 631 l 126 631 l 126 1136 l 0 1136 l 0 1262 l 252 1262 l 252 1136 l 379 1136 l 379 631 l 505 631 l 505 505 l 379 505 l 379 0 l 252 0 l 252 -126 l 0 -126 z "},"~":{"ha":1010,"x_min":0,"x_max":884,"o":"m 0 758 l 0 884 l 126 884 l 126 1010 l 505 1010 l 505 884 l 631 884 l 631 1010 l 884 1010 l 884 884 l 758 884 l 758 758 l 379 758 l 379 884 l 252 884 l 252 758 l 0 758 z "}}}
